<svg class="svg-icon" style="width: 1em; height: 1em;vertical-align: middle;fill: currentColor;overflow: hidden;" viewBox="0 0 1024 1024" version="1.1" xmlns="http://www.w3.org/2000/svg"><path d="M157.506409 712.112309a361.2647 152.089522 0 1 0 722.5294 0 361.2647 152.089522 0 1 0-722.5294 0Z" fill="#EF5350" /><path d="M365.639878 712.112309a153.131231 64.37762 0 1 0 306.262462 0 153.131231 64.37762 0 1 0-306.262462 0Z" fill="#EF9A9A" /><path d="M665.860427 200.424822c39.376602 39.376602 63.752594 93.753815 63.752594 153.964598 0 43.126755-29.167854 107.921058-66.669379 173.340387-38.334893 67.086063-85.211801 134.172126-118.963174 180.215666-3.750153 5.208545-8.542014 9.16704-14.167243 12.083825-5.416887 2.708444-11.667141 4.375178-17.917396 4.375178s-12.500509-1.458393-17.917396-4.375178c-5.625229-2.916785-10.417091-6.87528-14.167243-12.083825-33.751373-46.04354-80.628281-113.129603-118.963174-180.215666-37.501526-65.419329-66.669379-130.213632-66.669379-173.340387 0-60.210783 24.375992-114.587996 63.752594-153.964598 39.376602-39.376602 93.753815-63.752594 153.964598-63.752594 60.210783 0 114.587996 24.375992 153.964598 63.752594z" fill="#7CB342" /><path d="M445.851475 283.344863c-16.875687 16.875687-27.501119 40.418311-27.501119 66.252695 0 25.834385 10.417091 49.168667 27.292777 66.252696 16.875687 16.875687 40.418311 27.501119 66.252696 27.501119 25.834385 0 49.377009-10.417091 66.252696-27.292777 16.875687-16.875687 27.292777-40.209969 27.292777-66.252696 0-25.834385-10.417091-49.377009-27.501119-66.252696-16.875687-16.875687-40.418311-27.501119-66.252696-27.501119-25.626043 0-48.960326 10.417091-65.836012 27.292778z" fill="#689F38" /></svg>